<mxfile host="www.draw.io" modified="2019-10-26T06:43:40.357Z" agent="Mozilla/5.0 (Macintosh; Intel Mac OS X 10.15; rv:69.0) Gecko/20100101 Firefox/69.0" etag="a4c5LxYqIlTvi0ysnmFp" version="12.1.7" type="github" pages="4">
  <diagram id="_wqNVYYb0TesmWPclq3_" name="Overview">
    <mxGraphModel dx="715" dy="541" grid="1" gridSize="10" guides="1" tooltips="1" connect="1" arrows="1" fold="1" page="1" pageScale="1" pageWidth="827" pageHeight="1169" math="0" shadow="0">
      <root>
        <mxCell id="0"/>
        <mxCell id="1" parent="0"/>
        <mxCell id="X10O4HpIQA7aanlhPgI5-1" style="edgeStyle=orthogonalEdgeStyle;rounded=0;orthogonalLoop=1;jettySize=auto;html=1;exitX=0.5;exitY=1;exitDx=0;exitDy=0;entryX=0.5;entryY=0;entryDx=0;entryDy=0;" parent="1" source="X10O4HpIQA7aanlhPgI5-2" target="X10O4HpIQA7aanlhPgI5-8" edge="1">
          <mxGeometry relative="1" as="geometry"/>
        </mxCell>
        <mxCell id="X10O4HpIQA7aanlhPgI5-2" value="Start" style="ellipse;whiteSpace=wrap;html=1;" parent="1" vertex="1">
          <mxGeometry x="730" y="60" width="120" height="80" as="geometry"/>
        </mxCell>
        <mxCell id="X10O4HpIQA7aanlhPgI5-4" value="long welcome&lt;br&gt;&lt;div&gt;options:&lt;/div&gt;&lt;div&gt;- config the profile&lt;/div&gt;&lt;div&gt;- config the dog&lt;/div&gt;&lt;div&gt;- protect the house&lt;br&gt;&lt;/div&gt;" style="rounded=0;whiteSpace=wrap;html=1;" parent="1" vertex="1">
          <mxGeometry x="590" y="230" width="120" height="80" as="geometry"/>
        </mxCell>
        <mxCell id="X10O4HpIQA7aanlhPgI5-5" style="edgeStyle=orthogonalEdgeStyle;rounded=0;orthogonalLoop=1;jettySize=auto;html=1;exitX=0.5;exitY=1;exitDx=0;exitDy=0;" parent="1" source="X10O4HpIQA7aanlhPgI5-8" target="X10O4HpIQA7aanlhPgI5-9" edge="1">
          <mxGeometry relative="1" as="geometry"/>
        </mxCell>
        <mxCell id="X10O4HpIQA7aanlhPgI5-6" style="edgeStyle=orthogonalEdgeStyle;rounded=0;orthogonalLoop=1;jettySize=auto;html=1;exitX=0;exitY=0.5;exitDx=0;exitDy=0;entryX=0.5;entryY=0;entryDx=0;entryDy=0;" parent="1" source="X10O4HpIQA7aanlhPgI5-8" target="X10O4HpIQA7aanlhPgI5-4" edge="1">
          <mxGeometry relative="1" as="geometry"/>
        </mxCell>
        <mxCell id="X10O4HpIQA7aanlhPgI5-7" value="Yes" style="text;html=1;resizable=0;points=[];align=center;verticalAlign=middle;labelBackgroundColor=#ffffff;" parent="X10O4HpIQA7aanlhPgI5-6" vertex="1" connectable="0">
          <mxGeometry x="0.0167" y="3" relative="1" as="geometry">
            <mxPoint y="-5" as="offset"/>
          </mxGeometry>
        </mxCell>
        <mxCell id="X10O4HpIQA7aanlhPgI5-8" value="first usage?" style="rhombus;whiteSpace=wrap;html=1;" parent="1" vertex="1">
          <mxGeometry x="750" y="170" width="80" height="80" as="geometry"/>
        </mxCell>
        <mxCell id="X10O4HpIQA7aanlhPgI5-9" value="play sounds from user&#39;s profile&lt;br&gt;(protect intent)" style="rounded=0;whiteSpace=wrap;html=1;" parent="1" vertex="1">
          <mxGeometry x="730" y="360" width="120" height="60" as="geometry"/>
        </mxCell>
        <mxCell id="X10O4HpIQA7aanlhPgI5-10" style="edgeStyle=orthogonalEdgeStyle;rounded=0;orthogonalLoop=1;jettySize=auto;html=1;exitX=0.5;exitY=0.5;exitDx=0;exitDy=0;exitPerimeter=0;entryX=0;entryY=0.5;entryDx=0;entryDy=0;" parent="1" source="X10O4HpIQA7aanlhPgI5-15" target="X10O4HpIQA7aanlhPgI5-2" edge="1">
          <mxGeometry relative="1" as="geometry"/>
        </mxCell>
        <mxCell id="X10O4HpIQA7aanlhPgI5-11" style="edgeStyle=orthogonalEdgeStyle;rounded=0;orthogonalLoop=1;jettySize=auto;html=1;exitX=0.5;exitY=0.5;exitDx=0;exitDy=0;exitPerimeter=0;entryX=0.5;entryY=0;entryDx=0;entryDy=0;" parent="1" source="X10O4HpIQA7aanlhPgI5-15" target="X10O4HpIQA7aanlhPgI5-17" edge="1">
          <mxGeometry relative="1" as="geometry"/>
        </mxCell>
        <mxCell id="X10O4HpIQA7aanlhPgI5-12" style="edgeStyle=orthogonalEdgeStyle;rounded=0;orthogonalLoop=1;jettySize=auto;html=1;exitX=0.5;exitY=0.5;exitDx=0;exitDy=0;exitPerimeter=0;entryX=0.5;entryY=0;entryDx=0;entryDy=0;" parent="1" source="X10O4HpIQA7aanlhPgI5-15" target="X10O4HpIQA7aanlhPgI5-19" edge="1">
          <mxGeometry relative="1" as="geometry"/>
        </mxCell>
        <mxCell id="X10O4HpIQA7aanlhPgI5-13" style="edgeStyle=orthogonalEdgeStyle;rounded=0;orthogonalLoop=1;jettySize=auto;html=1;exitX=0.5;exitY=0.5;exitDx=0;exitDy=0;exitPerimeter=0;entryX=0.5;entryY=0;entryDx=0;entryDy=0;" parent="1" source="X10O4HpIQA7aanlhPgI5-15" target="X10O4HpIQA7aanlhPgI5-20" edge="1">
          <mxGeometry relative="1" as="geometry"/>
        </mxCell>
        <mxCell id="X10O4HpIQA7aanlhPgI5-14" style="edgeStyle=orthogonalEdgeStyle;rounded=0;orthogonalLoop=1;jettySize=auto;html=1;exitX=0.5;exitY=0.5;exitDx=0;exitDy=0;exitPerimeter=0;entryX=0.5;entryY=0;entryDx=0;entryDy=0;" parent="1" source="X10O4HpIQA7aanlhPgI5-15" target="X10O4HpIQA7aanlhPgI5-21" edge="1">
          <mxGeometry relative="1" as="geometry"/>
        </mxCell>
        <mxCell id="X10O4HpIQA7aanlhPgI5-15" value="Actor" style="shape=umlActor;verticalLabelPosition=bottom;labelBackgroundColor=#ffffff;verticalAlign=top;html=1;outlineConnect=0;" parent="1" vertex="1">
          <mxGeometry x="95" y="70" width="30" height="60" as="geometry"/>
        </mxCell>
        <mxCell id="X10O4HpIQA7aanlhPgI5-16" style="edgeStyle=orthogonalEdgeStyle;rounded=0;orthogonalLoop=1;jettySize=auto;html=1;exitX=0.5;exitY=1;exitDx=0;exitDy=0;" parent="1" source="X10O4HpIQA7aanlhPgI5-17" target="X10O4HpIQA7aanlhPgI5-18" edge="1">
          <mxGeometry relative="1" as="geometry"/>
        </mxCell>
        <mxCell id="X10O4HpIQA7aanlhPgI5-17" value="Cancel Intent" style="rounded=0;whiteSpace=wrap;html=1;" parent="1" vertex="1">
          <mxGeometry x="50" y="230" width="120" height="60" as="geometry"/>
        </mxCell>
        <mxCell id="X10O4HpIQA7aanlhPgI5-18" value="stop" style="ellipse;whiteSpace=wrap;html=1;" parent="1" vertex="1">
          <mxGeometry x="50" y="400" width="120" height="80" as="geometry"/>
        </mxCell>
        <mxCell id="X10O4HpIQA7aanlhPgI5-19" value="Help Intent" style="rounded=0;whiteSpace=wrap;html=1;" parent="1" vertex="1">
          <mxGeometry x="180" y="230" width="120" height="60" as="geometry"/>
        </mxCell>
        <mxCell id="X10O4HpIQA7aanlhPgI5-20" value="Config Profile Intent" style="rounded=0;whiteSpace=wrap;html=1;" parent="1" vertex="1">
          <mxGeometry x="310" y="230" width="120" height="60" as="geometry"/>
        </mxCell>
        <mxCell id="X10O4HpIQA7aanlhPgI5-21" value="Config Dog Intent" style="rounded=0;whiteSpace=wrap;html=1;" parent="1" vertex="1">
          <mxGeometry x="440" y="230" width="120" height="60" as="geometry"/>
        </mxCell>
      </root>
    </mxGraphModel>
  </diagram>
  <diagram name="Config Profile Intent" id="HsKw3cKOglIU7m6DVeu_">
    <mxGraphModel dx="715" dy="541" grid="1" gridSize="10" guides="1" tooltips="1" connect="1" arrows="1" fold="1" page="1" pageScale="1" pageWidth="827" pageHeight="1169" math="0" shadow="0">
      <root>
        <mxCell id="t8ESWYo60n5k54QDF9HS-0"/>
        <mxCell id="t8ESWYo60n5k54QDF9HS-1" parent="t8ESWYo60n5k54QDF9HS-0"/>
        <mxCell id="t8ESWYo60n5k54QDF9HS-4" style="edgeStyle=orthogonalEdgeStyle;rounded=0;orthogonalLoop=1;jettySize=auto;html=1;exitX=0.5;exitY=0.5;exitDx=0;exitDy=0;exitPerimeter=0;entryX=0;entryY=0;entryDx=0;entryDy=25;entryPerimeter=0;" parent="t8ESWYo60n5k54QDF9HS-1" source="t8ESWYo60n5k54QDF9HS-2" target="t8ESWYo60n5k54QDF9HS-3" edge="1">
          <mxGeometry relative="1" as="geometry"/>
        </mxCell>
        <mxCell id="t8ESWYo60n5k54QDF9HS-2" value="Actor" style="shape=umlActor;verticalLabelPosition=bottom;labelBackgroundColor=#ffffff;verticalAlign=top;html=1;outlineConnect=0;" parent="t8ESWYo60n5k54QDF9HS-1" vertex="1">
          <mxGeometry x="20" y="20" width="30" height="60" as="geometry"/>
        </mxCell>
        <mxCell id="t8ESWYo60n5k54QDF9HS-6" style="edgeStyle=orthogonalEdgeStyle;rounded=0;orthogonalLoop=1;jettySize=auto;html=1;exitX=0;exitY=0;exitDx=60;exitDy=80;exitPerimeter=0;" parent="t8ESWYo60n5k54QDF9HS-1" source="t8ESWYo60n5k54QDF9HS-3" target="t8ESWYo60n5k54QDF9HS-5" edge="1">
          <mxGeometry relative="1" as="geometry"/>
        </mxCell>
        <mxCell id="t8ESWYo60n5k54QDF9HS-3" value="Change my profile" style="shape=callout;whiteSpace=wrap;html=1;perimeter=calloutPerimeter;" parent="t8ESWYo60n5k54QDF9HS-1" vertex="1">
          <mxGeometry x="270" y="25" width="120" height="80" as="geometry"/>
        </mxCell>
        <mxCell id="t8ESWYo60n5k54QDF9HS-8" style="edgeStyle=orthogonalEdgeStyle;rounded=0;orthogonalLoop=1;jettySize=auto;html=1;exitX=0.5;exitY=1;exitDx=0;exitDy=0;entryX=0.5;entryY=0;entryDx=0;entryDy=0;" parent="t8ESWYo60n5k54QDF9HS-1" source="t8ESWYo60n5k54QDF9HS-5" target="t8ESWYo60n5k54QDF9HS-7" edge="1">
          <mxGeometry relative="1" as="geometry"/>
        </mxCell>
        <mxCell id="t8ESWYo60n5k54QDF9HS-5" value="Confirm current profile" style="rounded=0;whiteSpace=wrap;html=1;" parent="t8ESWYo60n5k54QDF9HS-1" vertex="1">
          <mxGeometry x="270" y="140" width="120" height="60" as="geometry"/>
        </mxCell>
        <mxCell id="t8ESWYo60n5k54QDF9HS-10" style="edgeStyle=orthogonalEdgeStyle;rounded=0;orthogonalLoop=1;jettySize=auto;html=1;exitX=0;exitY=0.5;exitDx=0;exitDy=0;entryX=0.5;entryY=0;entryDx=0;entryDy=0;" parent="t8ESWYo60n5k54QDF9HS-1" source="t8ESWYo60n5k54QDF9HS-7" target="t8ESWYo60n5k54QDF9HS-9" edge="1">
          <mxGeometry relative="1" as="geometry"/>
        </mxCell>
        <mxCell id="t8ESWYo60n5k54QDF9HS-14" value="Yes" style="text;html=1;resizable=0;points=[];align=center;verticalAlign=middle;labelBackgroundColor=#ffffff;" parent="t8ESWYo60n5k54QDF9HS-10" vertex="1" connectable="0">
          <mxGeometry x="-0.5" y="1" relative="1" as="geometry">
            <mxPoint y="-2" as="offset"/>
          </mxGeometry>
        </mxCell>
        <mxCell id="t8ESWYo60n5k54QDF9HS-12" style="edgeStyle=orthogonalEdgeStyle;rounded=0;orthogonalLoop=1;jettySize=auto;html=1;exitX=1;exitY=0.5;exitDx=0;exitDy=0;entryX=0.5;entryY=0;entryDx=0;entryDy=0;" parent="t8ESWYo60n5k54QDF9HS-1" source="t8ESWYo60n5k54QDF9HS-7" target="t8ESWYo60n5k54QDF9HS-11" edge="1">
          <mxGeometry relative="1" as="geometry"/>
        </mxCell>
        <mxCell id="t8ESWYo60n5k54QDF9HS-13" value="No" style="text;html=1;resizable=0;points=[];align=center;verticalAlign=middle;labelBackgroundColor=#ffffff;" parent="t8ESWYo60n5k54QDF9HS-12" vertex="1" connectable="0">
          <mxGeometry x="-0.5" relative="1" as="geometry">
            <mxPoint x="-37" y="-8" as="offset"/>
          </mxGeometry>
        </mxCell>
        <mxCell id="t8ESWYo60n5k54QDF9HS-7" value="Change?" style="rhombus;whiteSpace=wrap;html=1;" parent="t8ESWYo60n5k54QDF9HS-1" vertex="1">
          <mxGeometry x="290" y="230" width="80" height="80" as="geometry"/>
        </mxCell>
        <mxCell id="sfj-TymBRwkWSwJLNx5Y-2" style="edgeStyle=orthogonalEdgeStyle;rounded=0;orthogonalLoop=1;jettySize=auto;html=1;exitX=0.5;exitY=1;exitDx=0;exitDy=0;entryX=0.5;entryY=0;entryDx=0;entryDy=0;" parent="t8ESWYo60n5k54QDF9HS-1" source="t8ESWYo60n5k54QDF9HS-9" target="sfj-TymBRwkWSwJLNx5Y-1" edge="1">
          <mxGeometry relative="1" as="geometry"/>
        </mxCell>
        <mxCell id="t8ESWYo60n5k54QDF9HS-9" value="Ask user about the new profile wanted" style="rounded=0;whiteSpace=wrap;html=1;" parent="t8ESWYo60n5k54QDF9HS-1" vertex="1">
          <mxGeometry x="150" y="330" width="120" height="60" as="geometry"/>
        </mxCell>
        <mxCell id="t8ESWYo60n5k54QDF9HS-11" value="&lt;span style=&quot;white-space: normal&quot;&gt;Open protect intent&lt;/span&gt;" style="rounded=0;whiteSpace=wrap;html=1;" parent="t8ESWYo60n5k54QDF9HS-1" vertex="1">
          <mxGeometry x="390" y="540" width="120" height="60" as="geometry"/>
        </mxCell>
        <mxCell id="sfj-TymBRwkWSwJLNx5Y-3" style="edgeStyle=orthogonalEdgeStyle;rounded=0;orthogonalLoop=1;jettySize=auto;html=1;exitX=0.5;exitY=1;exitDx=0;exitDy=0;entryX=0.5;entryY=0;entryDx=0;entryDy=0;" parent="t8ESWYo60n5k54QDF9HS-1" source="sfj-TymBRwkWSwJLNx5Y-1" target="t8ESWYo60n5k54QDF9HS-11" edge="1">
          <mxGeometry relative="1" as="geometry"/>
        </mxCell>
        <mxCell id="sfj-TymBRwkWSwJLNx5Y-1" value="Save the option in db" style="rounded=0;whiteSpace=wrap;html=1;" parent="t8ESWYo60n5k54QDF9HS-1" vertex="1">
          <mxGeometry x="150" y="420" width="120" height="60" as="geometry"/>
        </mxCell>
      </root>
    </mxGraphModel>
  </diagram>
  <diagram id="bSjxmX_Fs_swU3fyT4Ar" name="Config dog">
    <mxGraphModel dx="715" dy="541" grid="1" gridSize="10" guides="1" tooltips="1" connect="1" arrows="1" fold="1" page="1" pageScale="1" pageWidth="827" pageHeight="1169" math="0" shadow="0">
      <root>
        <mxCell id="0UDVuuBU8nNE6CpJG6oD-0"/>
        <mxCell id="0UDVuuBU8nNE6CpJG6oD-1" parent="0UDVuuBU8nNE6CpJG6oD-0"/>
        <mxCell id="NeI4yofVYN8mgndyzZoI-0" style="edgeStyle=orthogonalEdgeStyle;rounded=0;orthogonalLoop=1;jettySize=auto;html=1;exitX=0.5;exitY=0.5;exitDx=0;exitDy=0;exitPerimeter=0;entryX=0;entryY=0;entryDx=0;entryDy=25;entryPerimeter=0;" parent="0UDVuuBU8nNE6CpJG6oD-1" source="NeI4yofVYN8mgndyzZoI-1" target="NeI4yofVYN8mgndyzZoI-3" edge="1">
          <mxGeometry relative="1" as="geometry"/>
        </mxCell>
        <mxCell id="NeI4yofVYN8mgndyzZoI-1" value="Actor" style="shape=umlActor;verticalLabelPosition=bottom;labelBackgroundColor=#ffffff;verticalAlign=top;html=1;outlineConnect=0;" parent="0UDVuuBU8nNE6CpJG6oD-1" vertex="1">
          <mxGeometry x="20" y="20" width="30" height="60" as="geometry"/>
        </mxCell>
        <mxCell id="NeI4yofVYN8mgndyzZoI-2" style="edgeStyle=orthogonalEdgeStyle;rounded=0;orthogonalLoop=1;jettySize=auto;html=1;exitX=0;exitY=0;exitDx=60;exitDy=80;exitPerimeter=0;" parent="0UDVuuBU8nNE6CpJG6oD-1" source="NeI4yofVYN8mgndyzZoI-3" target="NeI4yofVYN8mgndyzZoI-5" edge="1">
          <mxGeometry relative="1" as="geometry"/>
        </mxCell>
        <mxCell id="NeI4yofVYN8mgndyzZoI-3" value="Change my dog" style="shape=callout;whiteSpace=wrap;html=1;perimeter=calloutPerimeter;" parent="0UDVuuBU8nNE6CpJG6oD-1" vertex="1">
          <mxGeometry x="270" y="25" width="120" height="80" as="geometry"/>
        </mxCell>
        <mxCell id="NeI4yofVYN8mgndyzZoI-4" style="edgeStyle=orthogonalEdgeStyle;rounded=0;orthogonalLoop=1;jettySize=auto;html=1;exitX=0.5;exitY=1;exitDx=0;exitDy=0;entryX=0.5;entryY=0;entryDx=0;entryDy=0;" parent="0UDVuuBU8nNE6CpJG6oD-1" source="NeI4yofVYN8mgndyzZoI-5" target="NeI4yofVYN8mgndyzZoI-10" edge="1">
          <mxGeometry relative="1" as="geometry"/>
        </mxCell>
        <mxCell id="NeI4yofVYN8mgndyzZoI-5" value="Confirm current dog" style="rounded=0;whiteSpace=wrap;html=1;" parent="0UDVuuBU8nNE6CpJG6oD-1" vertex="1">
          <mxGeometry x="270" y="140" width="120" height="60" as="geometry"/>
        </mxCell>
        <mxCell id="NeI4yofVYN8mgndyzZoI-6" style="edgeStyle=orthogonalEdgeStyle;rounded=0;orthogonalLoop=1;jettySize=auto;html=1;exitX=0;exitY=0.5;exitDx=0;exitDy=0;entryX=0.5;entryY=0;entryDx=0;entryDy=0;" parent="0UDVuuBU8nNE6CpJG6oD-1" source="NeI4yofVYN8mgndyzZoI-10" target="NeI4yofVYN8mgndyzZoI-12" edge="1">
          <mxGeometry relative="1" as="geometry"/>
        </mxCell>
        <mxCell id="NeI4yofVYN8mgndyzZoI-7" value="Yes" style="text;html=1;resizable=0;points=[];align=center;verticalAlign=middle;labelBackgroundColor=#ffffff;" parent="NeI4yofVYN8mgndyzZoI-6" vertex="1" connectable="0">
          <mxGeometry x="-0.5" y="1" relative="1" as="geometry">
            <mxPoint y="-2" as="offset"/>
          </mxGeometry>
        </mxCell>
        <mxCell id="NeI4yofVYN8mgndyzZoI-8" style="edgeStyle=orthogonalEdgeStyle;rounded=0;orthogonalLoop=1;jettySize=auto;html=1;exitX=1;exitY=0.5;exitDx=0;exitDy=0;entryX=0.5;entryY=0;entryDx=0;entryDy=0;" parent="0UDVuuBU8nNE6CpJG6oD-1" source="NeI4yofVYN8mgndyzZoI-10" target="NeI4yofVYN8mgndyzZoI-13" edge="1">
          <mxGeometry relative="1" as="geometry"/>
        </mxCell>
        <mxCell id="NeI4yofVYN8mgndyzZoI-9" value="No" style="text;html=1;resizable=0;points=[];align=center;verticalAlign=middle;labelBackgroundColor=#ffffff;" parent="NeI4yofVYN8mgndyzZoI-8" vertex="1" connectable="0">
          <mxGeometry x="-0.5" relative="1" as="geometry">
            <mxPoint x="-37" y="-8" as="offset"/>
          </mxGeometry>
        </mxCell>
        <mxCell id="NeI4yofVYN8mgndyzZoI-10" value="Change?" style="rhombus;whiteSpace=wrap;html=1;" parent="0UDVuuBU8nNE6CpJG6oD-1" vertex="1">
          <mxGeometry x="290" y="230" width="80" height="80" as="geometry"/>
        </mxCell>
        <mxCell id="NeI4yofVYN8mgndyzZoI-11" style="edgeStyle=orthogonalEdgeStyle;rounded=0;orthogonalLoop=1;jettySize=auto;html=1;exitX=0.5;exitY=1;exitDx=0;exitDy=0;entryX=0.5;entryY=0;entryDx=0;entryDy=0;" parent="0UDVuuBU8nNE6CpJG6oD-1" source="NeI4yofVYN8mgndyzZoI-12" target="NeI4yofVYN8mgndyzZoI-15" edge="1">
          <mxGeometry relative="1" as="geometry"/>
        </mxCell>
        <mxCell id="NeI4yofVYN8mgndyzZoI-12" value="Ask user about the new dog wanted" style="rounded=0;whiteSpace=wrap;html=1;" parent="0UDVuuBU8nNE6CpJG6oD-1" vertex="1">
          <mxGeometry x="150" y="330" width="120" height="60" as="geometry"/>
        </mxCell>
        <mxCell id="NeI4yofVYN8mgndyzZoI-13" value="&lt;span style=&quot;white-space: normal&quot;&gt;Open protect intent&lt;/span&gt;" style="rounded=0;whiteSpace=wrap;html=1;" parent="0UDVuuBU8nNE6CpJG6oD-1" vertex="1">
          <mxGeometry x="390" y="540" width="120" height="60" as="geometry"/>
        </mxCell>
        <mxCell id="NeI4yofVYN8mgndyzZoI-14" style="edgeStyle=orthogonalEdgeStyle;rounded=0;orthogonalLoop=1;jettySize=auto;html=1;exitX=0.5;exitY=1;exitDx=0;exitDy=0;entryX=0.5;entryY=0;entryDx=0;entryDy=0;" parent="0UDVuuBU8nNE6CpJG6oD-1" source="NeI4yofVYN8mgndyzZoI-15" target="NeI4yofVYN8mgndyzZoI-13" edge="1">
          <mxGeometry relative="1" as="geometry"/>
        </mxCell>
        <mxCell id="NeI4yofVYN8mgndyzZoI-15" value="Save the option in db" style="rounded=0;whiteSpace=wrap;html=1;" parent="0UDVuuBU8nNE6CpJG6oD-1" vertex="1">
          <mxGeometry x="150" y="420" width="120" height="60" as="geometry"/>
        </mxCell>
      </root>
    </mxGraphModel>
  </diagram>
  <diagram id="Ec8Fj60dy1B7Bxzr18sA" name="Protect Intent">
    <mxGraphModel dx="715" dy="541" grid="1" gridSize="10" guides="1" tooltips="1" connect="1" arrows="1" fold="1" page="1" pageScale="1" pageWidth="827" pageHeight="1169" math="0" shadow="0">
      <root>
        <mxCell id="qwzepNaz6ePmOKLWKJQ6-0"/>
        <mxCell id="qwzepNaz6ePmOKLWKJQ6-1" parent="qwzepNaz6ePmOKLWKJQ6-0"/>
        <mxCell id="4tcZi6S7ieC6bkfAxtY2-8" style="edgeStyle=orthogonalEdgeStyle;rounded=0;orthogonalLoop=1;jettySize=auto;html=1;exitX=0.5;exitY=0.5;exitDx=0;exitDy=0;exitPerimeter=0;entryX=0;entryY=0.5;entryDx=0;entryDy=0;" edge="1" parent="qwzepNaz6ePmOKLWKJQ6-1" source="ZK99KrdD86vcATEIQ5RK-0" target="4tcZi6S7ieC6bkfAxtY2-0">
          <mxGeometry relative="1" as="geometry"/>
        </mxCell>
        <mxCell id="ZK99KrdD86vcATEIQ5RK-0" value="Actor" style="shape=umlActor;verticalLabelPosition=bottom;labelBackgroundColor=#ffffff;verticalAlign=top;html=1;outlineConnect=0;" vertex="1" parent="qwzepNaz6ePmOKLWKJQ6-1">
          <mxGeometry x="95" y="70" width="30" height="60" as="geometry"/>
        </mxCell>
        <mxCell id="4tcZi6S7ieC6bkfAxtY2-2" style="edgeStyle=orthogonalEdgeStyle;rounded=0;orthogonalLoop=1;jettySize=auto;html=1;exitX=0.5;exitY=1;exitDx=0;exitDy=0;entryX=0.5;entryY=0;entryDx=0;entryDy=0;" edge="1" parent="qwzepNaz6ePmOKLWKJQ6-1" source="4tcZi6S7ieC6bkfAxtY2-0" target="4tcZi6S7ieC6bkfAxtY2-1">
          <mxGeometry relative="1" as="geometry"/>
        </mxCell>
        <mxCell id="4tcZi6S7ieC6bkfAxtY2-0" value="Get first profile sound randomly based on preferences" style="rounded=0;whiteSpace=wrap;html=1;" vertex="1" parent="qwzepNaz6ePmOKLWKJQ6-1">
          <mxGeometry x="390" y="70" width="120" height="60" as="geometry"/>
        </mxCell>
        <mxCell id="4tcZi6S7ieC6bkfAxtY2-10" style="edgeStyle=orthogonalEdgeStyle;rounded=0;orthogonalLoop=1;jettySize=auto;html=1;exitX=0.5;exitY=1;exitDx=0;exitDy=0;" edge="1" parent="qwzepNaz6ePmOKLWKJQ6-1" source="4tcZi6S7ieC6bkfAxtY2-1" target="4tcZi6S7ieC6bkfAxtY2-9">
          <mxGeometry relative="1" as="geometry"/>
        </mxCell>
        <mxCell id="4tcZi6S7ieC6bkfAxtY2-1" value="Get a short pause" style="rounded=0;whiteSpace=wrap;html=1;" vertex="1" parent="qwzepNaz6ePmOKLWKJQ6-1">
          <mxGeometry x="390" y="160" width="120" height="60" as="geometry"/>
        </mxCell>
        <mxCell id="4tcZi6S7ieC6bkfAxtY2-14" style="edgeStyle=orthogonalEdgeStyle;rounded=0;orthogonalLoop=1;jettySize=auto;html=1;exitX=0.5;exitY=1;exitDx=0;exitDy=0;" edge="1" parent="qwzepNaz6ePmOKLWKJQ6-1" source="4tcZi6S7ieC6bkfAxtY2-3" target="4tcZi6S7ieC6bkfAxtY2-4">
          <mxGeometry relative="1" as="geometry"/>
        </mxCell>
        <mxCell id="4tcZi6S7ieC6bkfAxtY2-3" value="Get a profile sound randomly based on preferences" style="rounded=0;whiteSpace=wrap;html=1;" vertex="1" parent="qwzepNaz6ePmOKLWKJQ6-1">
          <mxGeometry x="560" y="360" width="120" height="60" as="geometry"/>
        </mxCell>
        <mxCell id="4tcZi6S7ieC6bkfAxtY2-16" style="edgeStyle=orthogonalEdgeStyle;rounded=0;orthogonalLoop=1;jettySize=auto;html=1;exitX=0.5;exitY=1;exitDx=0;exitDy=0;entryX=0.5;entryY=0;entryDx=0;entryDy=0;" edge="1" parent="qwzepNaz6ePmOKLWKJQ6-1" source="4tcZi6S7ieC6bkfAxtY2-4" target="4tcZi6S7ieC6bkfAxtY2-9">
          <mxGeometry relative="1" as="geometry">
            <Array as="points">
              <mxPoint x="450" y="560"/>
              <mxPoint x="180" y="560"/>
              <mxPoint x="180" y="238"/>
              <mxPoint x="450" y="238"/>
            </Array>
          </mxGeometry>
        </mxCell>
        <mxCell id="4tcZi6S7ieC6bkfAxtY2-4" value="Get a pause randomly" style="rounded=0;whiteSpace=wrap;html=1;" vertex="1" parent="qwzepNaz6ePmOKLWKJQ6-1">
          <mxGeometry x="390" y="480" width="120" height="60" as="geometry"/>
        </mxCell>
        <mxCell id="4tcZi6S7ieC6bkfAxtY2-11" style="edgeStyle=orthogonalEdgeStyle;rounded=0;orthogonalLoop=1;jettySize=auto;html=1;exitX=1;exitY=0.5;exitDx=0;exitDy=0;" edge="1" parent="qwzepNaz6ePmOKLWKJQ6-1" source="4tcZi6S7ieC6bkfAxtY2-9" target="4tcZi6S7ieC6bkfAxtY2-3">
          <mxGeometry relative="1" as="geometry"/>
        </mxCell>
        <mxCell id="4tcZi6S7ieC6bkfAxtY2-17" value="No" style="text;html=1;resizable=0;points=[];align=center;verticalAlign=middle;labelBackgroundColor=#ffffff;" vertex="1" connectable="0" parent="4tcZi6S7ieC6bkfAxtY2-11">
          <mxGeometry x="-0.5259" relative="1" as="geometry">
            <mxPoint as="offset"/>
          </mxGeometry>
        </mxCell>
        <mxCell id="4tcZi6S7ieC6bkfAxtY2-13" style="edgeStyle=orthogonalEdgeStyle;rounded=0;orthogonalLoop=1;jettySize=auto;html=1;exitX=0;exitY=0.5;exitDx=0;exitDy=0;" edge="1" parent="qwzepNaz6ePmOKLWKJQ6-1" source="4tcZi6S7ieC6bkfAxtY2-9" target="4tcZi6S7ieC6bkfAxtY2-12">
          <mxGeometry relative="1" as="geometry"/>
        </mxCell>
        <mxCell id="4tcZi6S7ieC6bkfAxtY2-18" value="Yes" style="text;html=1;resizable=0;points=[];align=center;verticalAlign=middle;labelBackgroundColor=#ffffff;" vertex="1" connectable="0" parent="4tcZi6S7ieC6bkfAxtY2-13">
          <mxGeometry x="-0.4065" y="1" relative="1" as="geometry">
            <mxPoint as="offset"/>
          </mxGeometry>
        </mxCell>
        <mxCell id="4tcZi6S7ieC6bkfAxtY2-9" value="Was profile sound last time?" style="rhombus;whiteSpace=wrap;html=1;" vertex="1" parent="qwzepNaz6ePmOKLWKJQ6-1">
          <mxGeometry x="350" y="257.5" width="200" height="75" as="geometry"/>
        </mxCell>
        <mxCell id="4tcZi6S7ieC6bkfAxtY2-15" style="edgeStyle=orthogonalEdgeStyle;rounded=0;orthogonalLoop=1;jettySize=auto;html=1;exitX=0.5;exitY=1;exitDx=0;exitDy=0;entryX=0.5;entryY=0;entryDx=0;entryDy=0;" edge="1" parent="qwzepNaz6ePmOKLWKJQ6-1" source="4tcZi6S7ieC6bkfAxtY2-12" target="4tcZi6S7ieC6bkfAxtY2-4">
          <mxGeometry relative="1" as="geometry"/>
        </mxCell>
        <mxCell id="4tcZi6S7ieC6bkfAxtY2-12" value="Get a dog sound randomly based on preferances" style="rounded=0;whiteSpace=wrap;html=1;" vertex="1" parent="qwzepNaz6ePmOKLWKJQ6-1">
          <mxGeometry x="200" y="360" width="120" height="60" as="geometry"/>
        </mxCell>
      </root>
    </mxGraphModel>
  </diagram>
</mxfile>
